# xmcd
#
# Track frame offsets:
#  150
#  1670
#  22406
#  38182
#  50630
#  67782
#  78070
#  98726
#  117878
#  130614
#  154486
#  171126
#  191318
#  209158
#  245686
#  260134
#  273350
#  292758
#  316118
#
# Disc length: 4268 seconds
#
# Revision: 0
# Processed by: cddbd v1.5.1PL2 Copyright (c) Steve Scherf et al.
# Submitted via: Collectorz.com_Music_Collector 6.11
#
DISCID=0410aa13
DTITLE=Todd Snider - Tin Angel, Philadelphia - 07/12/2001 (Early Show) [CD2)
DYEAR=2001
DGENRE=Alt Country
TTITLE0=Intro
TTITLE1=New Connection
TTITLE2=Let's Get Out Of Here
TTITLE3=Keep Off The Grass
TTITLE4=Statastician's Blues
TTITLE5=Back To The Crossroads
TTITLE6=Horseshoe Lake
TTITLE7=My Generation Pt. 2
TTITLE8=45 Miles
TTITLE9=Easy Money
TTITLE10=Late Last Night
TTITLE11=Long Year
TTITLE12=Sideshow Blues
TTITLE13=Alright Guy
TTITLE14=Beer Run
TTITLE15=Goin' Down The Road Feelin' Bad
TTITLE16=Will The Circle Be Unbroken
TTITLE17=Hail, Hail, Rock And Roll
TTITLE18=Outtro
EXTD=
EXTT0=
EXTT1=
EXTT2=
EXTT3=
EXTT4=
EXTT5=
EXTT6=
EXTT7=
EXTT8=
EXTT9=
EXTT10=
EXTT11=
EXTT12=
EXTT13=
EXTT14=
EXTT15=
EXTT16=
EXTT17=
EXTT18=
PLAYORDER=
